<?xml version="1.0" encoding="UTF-8"?>
<svg width="600" height="400" viewBox="0 0 600 400" fill="none" xmlns="http://www.w3.org/2000/svg">
  <!-- Fondo con gradiente -->
  <rect width="600" height="400" rx="20" fill="url(#paint0_linear)" opacity="0.1"/>
  
  <!-- Ondas de audio -->
  <path d="M100 200 Q 150 150, 200 200 T 300 200 T 400 200 T 500 200" stroke="#0056b3" stroke-width="4" fill="none"/>
  <path d="M100 200 Q 150 100, 200 200 T 300 200 T 400 200 T 500 200" stroke="#0056b3" stroke-width="3" fill="none" opacity="0.7"/>
  <path d="M100 200 Q 150 50, 200 200 T 300 200 T 400 200 T 500 200" stroke="#0056b3" stroke-width="2" fill="none" opacity="0.5"/>
  
  <!-- Documento de transcripción -->
  <rect x="350" y="100" width="150" height="200" rx="10" fill="white" stroke="#dfe6e9" stroke-width="2"/>
  <line x1="370" y1="130" x2="480" y2="130" stroke="#bdc3c7" stroke-width="2"/>
  <line x1="370" y1="150" x2="480" y2="150" stroke="#bdc3c7" stroke-width="2"/>
  <line x1="370" y1="170" x2="480" y2="170" stroke="#bdc3c7" stroke-width="2"/>
  <line x1="370" y1="190" x2="480" y2="190" stroke="#bdc3c7" stroke-width="2"/>
  <line x1="370" y1="210" x2="480" y2="210" stroke="#bdc3c7" stroke-width="2"/>
  <line x1="370" y1="230" x2="430" y2="230" stroke="#bdc3c7" stroke-width="2"/>
  
  <!-- Micrófono -->
  <circle cx="200" cy="200" r="60" fill="#e6f0fa"/>
  <rect x="185" y="150" width="30" height="60" rx="15" fill="#0056b3"/>
  <rect x="185" y="140" width="30" height="10" rx="5" fill="#004494"/>
  <rect x="195" y="210" width="10" height="40" fill="#0056b3"/>
  <rect x="175" y="250" width="50" height="10" rx="5" fill="#0056b3"/>
  
  <!-- Círculos decorativos -->
  <circle cx="100" cy="100" r="20" fill="#00a0b0" opacity="0.2"/>
  <circle cx="500" cy="300" r="30" fill="#0056b3" opacity="0.2"/>
  <circle cx="400" cy="80" r="15" fill="#00a86b" opacity="0.2"/>
  <circle cx="150" cy="350" r="25" fill="#f39c12" opacity="0.2"/>
  
  <!-- Líneas de conexión -->
  <line x1="260" y1="200" x2="350" y2="200" stroke="#0056b3" stroke-width="2" stroke-dasharray="5 5"/>
  
  <!-- Definición de gradientes -->
  <defs>
    <linearGradient id="paint0_linear" x1="0" y1="0" x2="600" y2="400" gradientUnits="userSpaceOnUse">
      <stop stop-color="#0056b3"/>
      <stop offset="1" stop-color="#00a0b0"/>
    </linearGradient>
  </defs>
</svg>
